<svg width="62" height="62" fill="none" xmlns="http://www.w3.org/2000/svg"><g clip-path="url(#clip0_126_2)" fill="#0D4688"><path d="M28 10H12v2h16v-2zm0 4H12v2h16v-2zm0 4H12v2h16v-2zm0 4H12v2h16v-2zm0 4H12v2h16v-2zm0 4H12v2h16v-2zm0 16H12v2h16v-2zm0-4H12v2h16v-2zm0 8H12v2h16v-2z"/><path d="M61.447 34.105L46 26.382V5c0-2.757-2.243-5-5-5H5C2.243 0 0 2.243 0 5v2a1 1 0 001 1h7v49c0 2.757 2.243 5 5 5h36c2.757 0 5-2.243 5-5v-2a1 1 0 00-1-1h-7v-7.024a31.065 31.065 0 005.109-.578l2.087-.417c.467-.094.804-.504.804-.981v-6.307l2-.75v8.241A2.996 2.996 0 0054 49v2c0 1.654 1.346 3 3 3s3-1.346 3-3v-2a2.996 2.996 0 00-2-2.816v-8.991l3.352-1.257a1.001 1.001 0 00.095-1.831zM58 51a1 1 0 01-2 0v-2a1 1 0 012 0v2zM2 5c0-1.654 1.346-3 3-3h32.002A4.973 4.973 0 0036 5v1H2V5zm50 52c0 1.654-1.346 3-3 3H16.998A4.973 4.973 0 0018 57v-1h34v1zm-35-3a1 1 0 00-1 1v2c0 1.654-1.346 3-3 3s-3-1.346-3-3V8h27a1 1 0 001-1V5c0-1.654 1.346-3 3-3s3 1.346 3 3v21.382l-15.447 7.724c-.355.178-.572.55-.552.947.021.396.275.744.647.884L36 38.693V45a1 1 0 00.804.98l2.087.417c1.669.334 3.373.522 5.109.578V54H17zm35-9.82l-1.283.257a29.41 29.41 0 01-11.434 0L38 44.18v-8.36l1.283-.257a29.41 29.41 0 0111.434 0L52 35.82v8.36zm2-7.623V35a1 1 0 00-.804-.98l-2.087-.417a31.442 31.442 0 00-12.219 0l-2.087.417A1 1 0 0036 35v1.557l-4.502-1.688L45 28.118l13.502 6.751L54 36.557z"/></g><defs><clipPath id="clip0_126_2"><path fill="#fff" d="M0 0h62v62H0z"/></clipPath></defs></svg>