<svg width="20" height="18" fill="none" xmlns="http://www.w3.org/2000/svg"><path d="M15.43.538H4.57a3.9 3.9 0 00-2.74 1.128A3.835 3.835 0 00.692 4.385v9.23a3.835 3.835 0 001.138 2.719 3.9 3.9 0 002.74 1.128h10.86a3.9 3.9 0 002.74-1.128 3.835 3.835 0 001.138-2.719v-9.23a3.835 3.835 0 00-1.138-2.719A3.9 3.9 0 0015.43.538zM4.57 2.077h10.86a2.322 2.322 0 012.156 1.451l-5.94 5.892a2.343 2.343 0 01-3.292 0l-5.94-5.892c.172-.427.47-.794.854-1.053a2.34 2.34 0 011.302-.398zm10.86 13.846H4.57a2.337 2.337 0 01-1.645-.676 2.298 2.298 0 01-.681-1.632V5.538l5.013 4.97A3.9 3.9 0 0010 11.632a3.9 3.9 0 002.743-1.124l5.013-4.97v8.077c0 .612-.245 1.2-.681 1.632a2.337 2.337 0 01-1.646.676z" fill="#4078BA"/></svg>