<svg width="74" height="74" fill="none" xmlns="http://www.w3.org/2000/svg"><path d="M61.667 40.7H66.6a6.167 6.167 0 110 12.333H7.4a6.167 6.167 0 110-12.333h4.933" stroke="#0D4689" stroke-width="2.467" stroke-linecap="round" stroke-linejoin="round"/><path d="M28.367 4.822C17.032 8.03 11.803 17.49 9.398 25.9a54.92 54.92 0 00-1.517 7.4 49.837 49.837 0 00-.481 7.4m59.2 0a49.83 49.83 0 00-.481-7.4 54.914 54.914 0 00-1.517-7.4c-2.405-8.411-7.634-17.871-18.969-21.078" stroke="#0D4689" stroke-width="2.467" stroke-linecap="round" stroke-linejoin="round"/><path d="M45.633 12.333V3.7a2.467 2.467 0 00-2.466-2.467H30.833A2.467 2.467 0 0028.367 3.7v8.633M37 38.233c5.45 0 9.867-4.417 9.867-9.866 0-5.45-4.418-9.867-9.867-9.867-5.45 0-9.867 4.418-9.867 9.867 0 5.449 4.418 9.866 9.867 9.866z" stroke="#0D4689" stroke-width="2.467" stroke-linecap="round" stroke-linejoin="round"/><path d="M30.476 35.767h-5.81a2.371 2.371 0 01-2.466-2.245v-7.844a2.371 2.371 0 012.467-2.245h3.798m17.07 0h3.798a2.371 2.371 0 012.467 2.245v7.844a2.371 2.371 0 01-2.467 2.245h-5.809" stroke="#0D4689" stroke-width="2.467" stroke-linecap="round" stroke-linejoin="round"/><path clip-rule="evenodd" d="M22.2 25.9v7.4H7.881a54.927 54.927 0 011.517-7.4H22.2zm43.919 7.4H51.8v-7.4h12.802a54.92 54.92 0 011.517 7.4z" stroke="#0D4689" stroke-width="2.467" stroke-linecap="round" stroke-linejoin="round"/><path d="M8.633 53.033L29.6 65.367m35.767-12.334L44.4 65.367m-7.4 7.4a7.4 7.4 0 100-14.8 7.4 7.4 0 000 14.8z" stroke="#0D4689" stroke-width="2.467" stroke-linecap="round" stroke-linejoin="round"/><path d="M37 67.833a2.467 2.467 0 100-4.933 2.467 2.467 0 000 4.933zm-5.303-7.622l-11.964-7.178m34.534 0l-11.964 7.178" stroke="#0D4689" stroke-width="2.467" stroke-linecap="round" stroke-linejoin="round"/></svg>