<svg width="74" height="64" fill="none" xmlns="http://www.w3.org/2000/svg"><path clip-rule="evenodd" d="M33.559 4.153L1.819 56.52A4.008 4.008 0 005.26 62.6h63.48a4.007 4.007 0 003.441-6.08L40.441 4.153a4.027 4.027 0 00-6.882 0z" stroke="#0D4689" stroke-width="2.467" stroke-linecap="round" stroke-linejoin="round"/><path clip-rule="evenodd" d="M8.027 55.794l27.918-46.06a1.233 1.233 0 012.11 0l27.918 46.06a1.233 1.233 0 01-1.055 1.873H9.082a1.233 1.233 0 01-1.055-1.873z" stroke="#0D4689" stroke-width="2.467" stroke-linecap="round" stroke-linejoin="round"/><path clip-rule="evenodd" d="M48.1 39.207l-10.96-1.794 1.775-9.346-15.482 13.526 10.96 1.794-1.775 9.346L48.1 39.207z" stroke="#0D4689" stroke-width="2.467" stroke-linecap="round" stroke-linejoin="round"/></svg>