<svg width="74" height="74" fill="none" xmlns="http://www.w3.org/2000/svg"><path d="M25.9 19.733c3.55 0 8.633-6.535 8.633-11.1C34.533 3.873 30.66 0 25.9 0c-4.76 0-8.633 3.873-8.633 8.633 0 4.565 5.082 11.1 8.633 11.1zm0-17.266c3.4 0 6.167 2.766 6.167 6.166 0 3.74-4.516 8.634-6.167 8.634-1.651 0-6.167-4.894-6.167-8.634 0-3.4 2.767-6.166 6.167-6.166zM32.067 22.2H19.733c-6.12 0-11.1 4.98-11.1 11.1v3.38a8.317 8.317 0 004.056 7.127l3.344 1.99v19.57C16.033 71.732 19.22 74 22.2 74h7.4c2.981 0 6.167-2.268 6.167-8.633V48.658a4.931 4.931 0 002.732.673c2.618-.145 4.668-2.398 4.668-5.129V33.3c0-6.12-4.98-11.1-11.1-11.1zM33.3 65.367c0 3.919-1.349 6.166-3.7 6.166h-2.467v-11.1a1.233 1.233 0 10-2.466 0v11.1H22.2c-2.351 0-3.7-2.247-3.7-6.166V47.265l.354.211c.82.478 1.777.672 2.71.587l5.986 3.564a1.236 1.236 0 001.707-.457l4.043-7.204v21.401zm-5.575-16.508l-3.396-2.021a4.9 4.9 0 00.886-1.114c1.388-2.38.615-5.438-1.772-6.841l-1.423-.754 4.522-8.056 8.794 5.226-7.611 13.56zM40.7 44.202c0 1.399-1.05 2.595-2.326 2.666a2.483 2.483 0 01-1.846-.683 2.444 2.444 0 01-.761-1.785v-3.7c0-.264-.102-.496-.243-.697l2.552-4.546a1.233 1.233 0 00-.446-1.664l-10.915-6.487a1.232 1.232 0 00-1.706.457l-5.172 9.217-2.048-1.072a1.233 1.233 0 00-1.144 2.184l3.104 1.626 2.492 1.317c1.15.678 1.537 2.256.84 3.449-.334.577-.874.978-1.48 1.1-.006 0-.01.003-.015.005h-.012c-.485.108-1.04.01-1.469-.239l-6.157-3.664A5.84 5.84 0 0111.1 36.68V33.3c0-4.76 3.873-8.633 8.633-8.633h12.334c4.76 0 8.633 3.872 8.633 8.633v10.903zM50.567 14.8H62.9c.682 0 1.233-.552 1.233-1.233V1.233C64.133.553 63.582 0 62.9 0H50.567c-.682 0-1.234.552-1.234 1.233v12.334c0 .68.552 1.233 1.234 1.233zM51.8 2.467h9.867v9.866H51.8V2.467zm2.097 26.64a1.236 1.236 0 001.805.182l5.55-4.934a1.233 1.233 0 10-1.638-1.844l-4.549 4.044-1.045-1.395a1.23 1.23 0 00-1.726-.246 1.232 1.232 0 00-.247 1.726l1.85 2.467z" fill="#0D4689"/><path d="M64.133 17.267h-14.8c-.681 0-1.233.552-1.233 1.233v14.8c0 .681.552 1.233 1.233 1.233h14.8c.682 0 1.234-.552 1.234-1.233V18.5c0-.681-.552-1.233-1.234-1.233zm-1.233 14.8H50.567V19.733H62.9v12.334zm-9.003 34.04a1.236 1.236 0 001.805.182l5.55-4.934a1.233 1.233 0 10-1.638-1.844l-4.549 4.044-1.045-1.395a1.232 1.232 0 10-1.973 1.48l1.85 2.467z" fill="#0D4689"/><path d="M64.133 54.267h-14.8c-.681 0-1.233.552-1.233 1.233v14.8c0 .681.552 1.233 1.233 1.233h14.8c.682 0 1.234-.552 1.234-1.233V55.5c0-.681-.552-1.233-1.234-1.233zm-1.233 14.8H50.567V56.733H62.9v12.334zM56.733 3.7c-2.04 0-3.7 1.66-3.7 3.7s1.66 3.7 3.7 3.7 3.7-1.66 3.7-3.7-1.66-3.7-3.7-3.7zm0 4.933a1.235 1.235 0 010-2.466c.68 0 1.234.553 1.234 1.233s-.553 1.233-1.234 1.233zM62.9 51.8c.682 0 1.233-.552 1.233-1.233V38.233c0-.68-.551-1.233-1.233-1.233H50.567c-.682 0-1.234.552-1.234 1.233v12.334c0 .68.552 1.233 1.234 1.233H62.9zM51.8 39.467h9.867v9.866H51.8v-9.866z" fill="#0D4689"/><path d="M56.733 40.7c-2.04 0-3.7 1.66-3.7 3.7s1.66 3.7 3.7 3.7 3.7-1.66 3.7-3.7-1.66-3.7-3.7-3.7zm0 4.933a1.234 1.234 0 010-2.466c.68 0 1.234.553 1.234 1.233s-.553 1.233-1.234 1.233z" fill="#0D4689"/></svg>