<svg width="74" height="74" fill="none" xmlns="http://www.w3.org/2000/svg"><path clip-rule="evenodd" d="M37 16.033h7.4c6.13 0 11.1 4.97 11.1 11.1v45.634H25.9V27.133c0-6.13 4.97-11.1 11.1-11.1zM34.533 11.1v4.933h12.334v-2.466A2.467 2.467 0 0044.4 11.1h-9.867z" stroke="#0D4689" stroke-width="2.467" stroke-linecap="round" stroke-linejoin="round"/><path clip-rule="evenodd" d="M66.6 6.167H45.633A4.933 4.933 0 1140.7 1.233h20.967A4.932 4.932 0 0166.6 6.167z" stroke="#0D4689" stroke-width="2.467" stroke-linecap="round" stroke-linejoin="round"/><path d="M34.533 11.1H29.6c-10.898 0-19.733 8.835-19.733 19.733v25.9H14.8V32.067c0-8.855 7.178-16.034 16.033-16.034h3.7" stroke="#0D4689" stroke-width="2.467" stroke-linecap="round" stroke-linejoin="round"/><path clip-rule="evenodd" d="M17.21 68.512L14.8 56.733H9.867l-2.41 11.779A2.411 2.411 0 009.6 71.533h5.467a2.411 2.411 0 002.142-3.021z" stroke="#0D4689" stroke-width="2.467" stroke-linecap="round" stroke-linejoin="round"/><path d="M9.867 48.1H14.8m40.7-19.733H25.9v35.766h29.6V28.367zm-2.75-22.2l6.956 7.338a2.464 2.464 0 01-3.478 3.49L45.954 6.167" stroke="#0D4689" stroke-width="2.467" stroke-linecap="round" stroke-linejoin="round"/></svg>