<svg width="74" height="74" fill="none" xmlns="http://www.w3.org/2000/svg"><path d="M69.017 39.566a4.711 4.711 0 00-4.61 3.766h-5.424A23.305 23.305 0 0047.46 30.081v-9.583c0-.62-.502-1.122-1.121-1.122H42.53v-7.37h9.99a6.01 6.01 0 006.003-6.002A6.01 6.01 0 0052.52 0H21.506a6.01 6.01 0 00-6.003 6.004 6.01 6.01 0 006.003 6.003h10.002v7.37h-3.82a1.12 1.12 0 00-1.121 1.12v9.587a23.308 23.308 0 00-11.528 13.263H9.591a4.71 4.71 0 00-4.609-3.765 4.709 4.709 0 00-4.704 4.704v13.031a4.709 4.709 0 004.704 4.704 4.71 4.71 0 004.61-3.768h5.456C18.17 67.397 26.83 74 37.02 74c10.192 0 18.85-6.611 21.965-15.763h5.424a4.71 4.71 0 004.609 3.769 4.709 4.709 0 004.704-4.704V44.27a4.709 4.709 0 00-4.704-4.704zM17.746 6.005a3.765 3.765 0 013.76-3.762h31.015a3.765 3.765 0 013.76 3.762 3.764 3.764 0 01-3.76 3.76H21.506a3.764 3.764 0 01-3.76-3.76zm16.004 6.003h6.539v7.37H33.75v-7.37zm-4.94 9.612h16.407v7.476a23.052 23.052 0 00-8.198-1.523c-2.893 0-5.653.556-8.21 1.526v-7.48zM7.443 57.317a2.464 2.464 0 01-2.461 2.462 2.464 2.464 0 01-2.461-2.462v-13.03a2.464 2.464 0 012.461-2.462 2.464 2.464 0 012.461 2.461v13.031zm2.244-1.306V45.59H14.4a23.128 23.128 0 00-.608 5.196c0 1.799.226 3.542.616 5.225h-4.72zM37.02 71.758c-11.57 0-20.983-9.408-20.983-20.972 0-11.564 9.413-20.972 20.983-20.972 11.564 0 20.972 9.408 20.972 20.972 0 11.564-9.408 20.972-20.972 20.972zm27.292-15.763h-4.688c.386-1.677.61-3.416.61-5.21a23.19 23.19 0 00-.61-5.21h4.688v10.42zm7.167 1.307a2.464 2.464 0 01-2.461 2.461 2.464 2.464 0 01-2.462-2.461V44.27a2.464 2.464 0 012.462-2.461 2.464 2.464 0 012.461 2.461v13.032z" fill="#0D4689"/><path d="M37.013 34.197a1.12 1.12 0 001.121-1.121v-.408a1.121 1.121 0 00-2.242 0v.408c0 .619.502 1.12 1.121 1.12zm.007 1.571c-8.288 0-15.031 6.737-15.031 15.018s6.743 15.018 15.03 15.018c8.282 0 15.019-6.737 15.019-15.018S45.3 35.768 37.019 35.768zm0 27.794c-7.052 0-12.789-5.731-12.789-12.776S29.968 38.01 37.02 38.01c7.045 0 12.776 5.73 12.776 12.776 0 7.045-5.731 12.776-12.776 12.776zm12.516-24.178c.287 0 .574-.11.793-.328l.289-.289a1.12 1.12 0 10-1.586-1.585l-.288.288a1.12 1.12 0 00.792 1.914zM23.698 62.516l-.289.289a1.12 1.12 0 101.586 1.585l.288-.288a1.12 1.12 0 10-1.585-1.586zm31.434-12.851h-.408a1.121 1.121 0 000 2.242h.408a1.121 1.121 0 000-2.242zm-35.829 0h-.408a1.121 1.121 0 000 2.242h.408a1.121 1.121 0 000-2.242zM50.33 62.516a1.12 1.12 0 10-1.586 1.586l.288.288a1.117 1.117 0 001.586 0 1.12 1.12 0 000-1.585l-.289-.289zm-26.632-23.46a1.117 1.117 0 001.585 0 1.12 1.12 0 000-1.586l-.288-.288a1.12 1.12 0 10-1.586 1.585l.289.289z" fill="#0D4689"/></svg>