<svg width="181" height="181" fill="none" xmlns="http://www.w3.org/2000/svg"><path d="M150.833 99.55H162.9c8.33 0 15.083 6.753 15.083 15.083 0 8.331-6.753 15.084-15.083 15.084H18.1c-8.33 0-15.083-6.753-15.083-15.084 0-8.33 6.753-15.083 15.083-15.083h12.067" stroke="#E2EAF2" stroke-width="6.033" stroke-linecap="round" stroke-linejoin="round"/><path d="M69.383 11.795C41.66 19.64 28.87 42.777 22.987 63.35a134.324 134.324 0 00-3.71 18.1 121.884 121.884 0 00-1.177 18.1m144.8 0a121.897 121.897 0 00-1.176-18.1 134.31 134.31 0 00-3.711-18.1c-5.882-20.574-18.673-43.711-46.396-51.555" stroke="#E2EAF2" stroke-width="6.033" stroke-linecap="round" stroke-linejoin="round"/><path d="M111.617 30.167V9.05a6.034 6.034 0 00-6.034-6.033H75.417a6.033 6.033 0 00-6.034 6.033v21.117M90.5 93.517c13.328 0 24.133-10.805 24.133-24.134 0-13.328-10.805-24.133-24.133-24.133-13.329 0-24.133 10.805-24.133 24.133 0 13.329 10.804 24.134 24.133 24.134z" stroke="#E2EAF2" stroke-width="6.033" stroke-linecap="round" stroke-linejoin="round"/><path d="M74.542 87.483H60.333a5.8 5.8 0 01-6.033-5.49V62.807a5.8 5.8 0 016.033-5.49h9.292m41.75 0h9.292a5.8 5.8 0 016.033 5.49v19.186a5.8 5.8 0 01-6.033 5.49h-14.209" stroke="#E2EAF2" stroke-width="6.033" stroke-linecap="round" stroke-linejoin="round"/><path clip-rule="evenodd" d="M54.3 63.35v18.1H19.277c.82-6.111 2.06-12.159 3.71-18.1H54.3zm107.424 18.1H126.7v-18.1h31.313a134.304 134.304 0 013.711 18.1z" stroke="#E2EAF2" stroke-width="6.033" stroke-linecap="round" stroke-linejoin="round"/><path d="M21.117 129.717L72.4 159.883m87.483-30.166L108.6 159.883m-18.1 18.1c9.996 0 18.1-8.103 18.1-18.1 0-9.996-8.104-18.1-18.1-18.1-9.996 0-18.1 8.104-18.1 18.1 0 9.997 8.104 18.1 18.1 18.1z" stroke="#E2EAF2" stroke-width="6.033" stroke-linecap="round" stroke-linejoin="round"/><path d="M90.5 165.917a6.034 6.034 0 10-.001-12.068 6.034 6.034 0 00.001 12.068zm-12.972-18.643l-29.261-17.557m84.466 0l-29.261 17.557" stroke="#E2EAF2" stroke-width="6.033" stroke-linecap="round" stroke-linejoin="round"/></svg>