<svg width="181" height="181" fill="none" xmlns="http://www.w3.org/2000/svg"><path clip-rule="evenodd" d="M82.083 19.942L4.449 148.028a9.803 9.803 0 008.417 14.872h155.268a9.801 9.801 0 008.417-14.872L98.917 19.942a9.85 9.85 0 00-16.834 0z" stroke="#E2EAF2" stroke-width="6.033" stroke-linecap="round" stroke-linejoin="round"/><path clip-rule="evenodd" d="M19.634 146.254L87.92 33.591a3.017 3.017 0 015.16 0l68.286 112.663a3.017 3.017 0 01-2.58 4.58H22.214a3.017 3.017 0 01-2.58-4.58z" stroke="#E2EAF2" stroke-width="6.033" stroke-linecap="round" stroke-linejoin="round"/><path clip-rule="evenodd" d="M117.65 105.683l-26.806-4.389 4.34-22.86-37.867 33.083 26.806 4.389-4.341 22.861 37.868-33.084z" stroke="#E2EAF2" stroke-width="6.033" stroke-linecap="round" stroke-linejoin="round"/></svg>