<svg width="181" height="181" fill="none" xmlns="http://www.w3.org/2000/svg"><path d="M168.812 96.778c-5.559 0-10.207 3.962-11.274 9.21H144.27c-4.81-14.13-15.023-25.746-28.186-32.411v-23.44a2.742 2.742 0 00-2.742-2.743h-9.313V29.367h24.434c8.096 0 14.683-6.587 14.683-14.683C143.146 6.587 136.559 0 128.463 0h-75.86C44.507 0 37.92 6.587 37.92 14.684c0 8.096 6.587 14.683 14.683 14.683h24.463v18.027h-9.342a2.743 2.743 0 00-2.743 2.742v23.448c-13.174 6.672-23.393 18.3-28.197 32.441H23.46c-1.067-5.247-5.715-9.209-11.273-9.209-6.344 0-11.505 5.161-11.505 11.506v31.872c0 6.345 5.16 11.506 11.505 11.506 5.56 0 10.21-3.965 11.274-9.216H36.81C44.441 164.848 65.62 181 90.547 181c24.928 0 46.108-16.17 53.725-38.555h13.266c1.064 5.252 5.713 9.217 11.274 9.217 6.344 0 11.505-5.161 11.505-11.505v-31.874c0-6.345-5.161-11.505-11.505-11.505zM43.405 14.684c0-5.072 4.125-9.2 9.198-9.2h75.86c5.072 0 9.198 4.128 9.198 9.2 0 5.073-4.126 9.198-9.198 9.198h-75.86c-5.073 0-9.198-4.125-9.198-9.198zM82.55 29.367h15.993v18.027H82.55V29.367zM70.466 52.88H110.6v18.286c-6.246-2.369-12.987-3.725-20.053-3.725-7.077 0-13.827 1.359-20.08 3.732V52.879zM18.21 140.194a6.028 6.028 0 01-6.02 6.021 6.028 6.028 0 01-6.021-6.021v-31.872c0-3.32 2.7-6.021 6.02-6.021 3.32 0 6.02 2.701 6.02 6.021v31.872zm5.489-3.195V111.51h11.526c-.941 4.093-1.486 8.335-1.486 12.709 0 4.4.553 8.666 1.505 12.78H23.698zm66.849 38.516c-28.3 0-51.324-23.01-51.324-51.296 0-28.284 23.024-51.294 51.324-51.294 28.285 0 51.296 23.01 51.296 51.294 0 28.286-23.011 51.296-51.296 51.296zm66.755-38.554h-11.468c.945-4.103 1.494-8.356 1.494-12.742 0-4.388-.549-8.642-1.496-12.746h11.47v25.488zm17.53 3.196a6.027 6.027 0 01-6.02 6.02 6.028 6.028 0 01-6.021-6.02v-31.874a6.028 6.028 0 016.021-6.021 6.028 6.028 0 016.02 6.021v31.874z" fill="#E2EAF2"/><path d="M90.532 83.644a2.743 2.743 0 002.743-2.743v-.997a2.743 2.743 0 00-5.485 0v.997a2.743 2.743 0 002.742 2.743zm.015 3.842c-20.271 0-36.763 16.478-36.763 36.733 0 20.256 16.492 36.735 36.763 36.735 20.256 0 36.735-16.479 36.735-36.735 0-20.255-16.479-36.733-36.735-36.733zm0 67.983c-17.247 0-31.278-14.019-31.278-31.25S73.299 92.97 90.547 92.97c17.231 0 31.25 14.018 31.25 31.249 0 17.231-14.019 31.25-31.25 31.25zm30.617-59.137c.701 0 1.403-.268 1.938-.803l.706-.706a2.742 2.742 0 10-3.878-3.878l-.705.706a2.74 2.74 0 001.939 4.68zm-63.201 56.58l-.706.705a2.741 2.741 0 103.878 3.878l.706-.705a2.741 2.741 0 10-3.878-3.878zm76.886-31.435h-.998a2.742 2.742 0 000 5.485h.998a2.743 2.743 0 000-5.485zm-87.635 0h-.997a2.742 2.742 0 000 5.485h.997a2.743 2.743 0 000-5.485zm75.888 31.435a2.739 2.739 0 00-3.877 0 2.74 2.74 0 000 3.878l.705.705a2.734 2.734 0 001.939.804 2.742 2.742 0 001.939-4.682l-.706-.705zM57.963 95.528a2.734 2.734 0 001.94.804 2.741 2.741 0 001.939-4.681l-.707-.706a2.741 2.741 0 10-3.877 3.878l.705.706z" fill="#E2EAF2"/></svg>