<svg width="151" height="181" fill="none" xmlns="http://www.w3.org/2000/svg"><path clip-rule="evenodd" d="M75.5 39.217h18.1c14.995 0 27.15 12.155 27.15 27.15v111.616h-72.4V66.367c0-14.995 12.155-27.15 27.15-27.15zM69.467 27.15v12.067h30.166v-6.034A6.033 6.033 0 0093.6 27.15H69.467zM147.9 15.083H96.617c0 6.664-5.403 12.067-12.067 12.067-6.664 0-12.067-5.402-12.067-12.067 0-6.664 5.403-12.066 12.067-12.066h51.283A12.064 12.064 0 01147.9 15.083z" stroke="#E2EAF2" stroke-width="6.033" stroke-linecap="round" stroke-linejoin="round"/><path d="M69.467 27.15H57.4c-26.657 0-48.267 21.61-48.267 48.267v63.35H21.2V78.433c0-21.659 17.558-39.216 39.217-39.216h9.05" stroke="#E2EAF2" stroke-width="6.033" stroke-linecap="round" stroke-linejoin="round"/><path clip-rule="evenodd" d="M27.093 167.577l-5.893-28.81H9.133l-5.893 28.81a5.899 5.899 0 005.241 7.39h13.371a5.9 5.9 0 005.241-7.39z" stroke="#E2EAF2" stroke-width="6.033" stroke-linecap="round" stroke-linejoin="round"/><path d="M9.133 117.65H21.2m99.55-48.267h-72.4v87.484h72.4V69.383zm-6.727-54.299l17.014 17.949a6.027 6.027 0 01-8.507 8.537L97.401 15.084" stroke="#E2EAF2" stroke-width="6.033" stroke-linecap="round" stroke-linejoin="round"/></svg>