<svg width="139" height="181" fill="none" xmlns="http://www.w3.org/2000/svg"><path d="M42.35 48.267c8.685 0 21.117-15.985 21.117-27.15C63.467 9.473 53.992 0 42.35 0 30.707 0 21.233 9.473 21.233 21.117c0 11.165 12.432 27.15 21.117 27.15zm0-42.234c8.316 0 15.083 6.767 15.083 15.084 0 9.145-11.044 21.116-15.083 21.116s-15.083-11.97-15.083-21.116c0-8.317 6.766-15.084 15.083-15.084zM57.433 54.3H27.267C12.295 54.3.117 66.48.117 81.45v8.266c0 7.13 3.803 13.812 9.919 17.434l8.18 4.868v47.865C18.217 175.453 26.01 181 33.3 181h18.1c7.291 0 15.083-5.547 15.083-21.117v-40.868a12.064 12.064 0 006.685 1.647c6.401-.355 11.415-5.865 11.415-12.545V81.45c0-14.97-12.178-27.15-27.15-27.15zm3.017 105.583c0 9.586-3.3 15.083-9.05 15.083h-6.033v-27.15a3.016 3.016 0 10-6.034 0v27.15H33.3c-5.75 0-9.05-5.497-9.05-15.083v-44.275l.866.516c2.005 1.169 4.347 1.644 6.63 1.435l14.64 8.717a3.03 3.03 0 002.321.322 3.016 3.016 0 001.853-1.439l9.89-17.621v52.345zm-13.637-40.376l-8.305-4.945a11.96 11.96 0 002.166-2.723c3.396-5.824 1.505-13.301-4.334-16.735l-3.479-1.842 11.06-19.706L65.428 86.34l-18.616 33.167zm31.737-11.39c0 3.42-2.566 6.345-5.689 6.519-1.744.065-3.308-.517-4.516-1.67a5.978 5.978 0 01-1.862-4.366v-9.05c0-.647-.247-1.213-.593-1.704l6.24-11.12a3.016 3.016 0 00-1.09-4.07L44.345 66.79a3.04 3.04 0 00-2.321-.32 3.012 3.012 0 00-1.85 1.438L27.52 90.45l-5.008-2.622a3.017 3.017 0 00-2.799 5.344l7.591 3.975 6.096 3.223c2.814 1.657 3.76 5.518 2.056 8.435-.819 1.412-2.138 2.393-3.623 2.689-.013.003-.023.01-.035.013-.01.002-.02-.002-.03 0-1.184.266-2.545.026-3.591-.583l-15.06-8.961C8.82 99.419 6.15 94.726 6.15 89.716V81.45c0-11.644 9.474-21.117 21.117-21.117h30.166c11.643 0 21.117 9.473 21.117 21.117v26.667zM102.683 36.2h30.167a3.016 3.016 0 003.017-3.017V3.017A3.016 3.016 0 00132.85 0h-30.167a3.016 3.016 0 00-3.016 3.017v30.166a3.016 3.016 0 003.016 3.017zM105.7 6.033h24.133v24.134H105.7V6.033zm5.129 65.16a3.025 3.025 0 002.413 1.207c.736 0 1.449-.27 2.003-.762l13.575-12.066a3.016 3.016 0 10-4.007-4.51l-11.127 9.889-2.557-3.411a3.01 3.01 0 00-4.221-.603 3.012 3.012 0 00-.604 4.223l4.525 6.033z" fill="#E2EAF2"/><path d="M135.867 42.233h-36.2a3.016 3.016 0 00-3.017 3.017v36.2a3.016 3.016 0 003.017 3.017h36.2a3.016 3.016 0 003.016-3.017v-36.2a3.016 3.016 0 00-3.016-3.017zm-3.017 36.2h-30.167V48.267h30.167v30.166zm-22.021 83.26a3.023 3.023 0 002.413 1.207c.736 0 1.449-.27 2.003-.762l13.575-12.066a3.016 3.016 0 00-4.007-4.511l-11.127 9.89-2.557-3.411a3.013 3.013 0 00-4.221-.603 3.012 3.012 0 00-.604 4.223l4.525 6.033z" fill="#E2EAF2"/><path d="M135.867 132.733h-36.2a3.016 3.016 0 00-3.017 3.017v36.2a3.016 3.016 0 003.017 3.017h36.2a3.016 3.016 0 003.016-3.017v-36.2a3.016 3.016 0 00-3.016-3.017zm-3.017 36.2h-30.167v-30.166h30.167v30.166zM117.767 9.05c-4.991 0-9.05 4.06-9.05 9.05 0 4.99 4.059 9.05 9.05 9.05 4.99 0 9.05-4.06 9.05-9.05 0-4.99-4.06-9.05-9.05-9.05zm0 12.066a3.02 3.02 0 01-3.017-3.016 3.02 3.02 0 013.017-3.017 3.02 3.02 0 013.016 3.017 3.02 3.02 0 01-3.016 3.016zM132.85 126.7a3.017 3.017 0 003.017-3.017V93.517a3.016 3.016 0 00-3.017-3.017h-30.167a3.016 3.016 0 00-3.016 3.017v30.166a3.016 3.016 0 003.016 3.017h30.167zM105.7 96.533h24.133v24.134H105.7V96.533z" fill="#E2EAF2"/><path d="M117.767 99.55c-4.991 0-9.05 4.059-9.05 9.05 0 4.99 4.059 9.05 9.05 9.05 4.99 0 9.05-4.06 9.05-9.05 0-4.991-4.06-9.05-9.05-9.05zm0 12.066a3.019 3.019 0 01-3.017-3.016 3.02 3.02 0 013.017-3.017 3.02 3.02 0 013.016 3.017 3.019 3.019 0 01-3.016 3.016z" fill="#E2EAF2"/></svg>