<svg width="170" height="170" fill="none" xmlns="http://www.w3.org/2000/svg"><path d="M76.774 27.42H32.903v5.483h43.87V27.42zm0 10.967H32.903v5.484h43.87v-5.484zm0 10.968H32.903v5.484h43.87v-5.484zm0 10.968H32.903v5.483h43.87v-5.483zm0 10.967H32.903v5.484h43.87V71.29zm0 10.968H32.903v5.484h43.87v-5.484zm0 43.871H32.903v5.484h43.87v-5.484zm0-10.968H32.903v5.484h43.87v-5.484zm0 21.936H32.903v5.484h43.87v-5.484z" fill="#E3F0FF"/><path d="M168.483 93.514l-42.355-21.176V13.71c0-7.56-6.15-13.71-13.709-13.71h-98.71C6.15 0 0 6.15 0 13.71v5.483a2.74 2.74 0 002.742 2.742h19.193V156.29c0 7.56 6.15 13.71 13.71 13.71h98.709c7.559 0 13.71-6.15 13.71-13.71v-5.484a2.74 2.74 0 00-2.742-2.741h-19.194v-19.26a85.1 85.1 0 0014.009-1.585l5.722-1.143a2.745 2.745 0 002.205-2.69v-17.293l5.483-2.057v22.597c-3.183 1.135-5.483 4.151-5.483 7.721v5.484c0 4.535 3.69 8.226 8.225 8.226s8.226-3.691 8.226-8.226v-5.484c0-3.57-2.3-6.586-5.484-7.721v-24.653l9.191-3.447a2.744 2.744 0 00.261-5.02zm-9.452 46.325a2.743 2.743 0 01-5.484 0v-5.484a2.743 2.743 0 015.484 0v5.484zM5.484 13.709c0-4.534 3.69-8.225 8.226-8.225h87.746a13.64 13.64 0 00-2.747 8.226v2.742H5.484V13.71zM142.58 156.29c0 4.535-3.691 8.226-8.226 8.226H46.607a13.636 13.636 0 002.748-8.226v-2.742h93.225v2.742zm-95.967-8.225a2.739 2.739 0 00-2.742 2.741v5.484c0 4.535-3.69 8.226-8.226 8.226-4.535 0-8.226-3.691-8.226-8.226V21.935h74.032a2.74 2.74 0 002.742-2.741V13.71c0-4.535 3.69-8.226 8.226-8.226 4.535 0 8.225 3.69 8.225 8.226v58.628L78.29 93.516a2.752 2.752 0 00-1.514 2.597 2.748 2.748 0 001.775 2.424l20.158 7.557v17.293a2.74 2.74 0 002.205 2.687l5.722 1.144c4.576.915 9.248 1.431 14.008 1.584v19.263H46.613zm95.967-26.926l-3.518.704c-10.099 2.018-20.943 2.084-31.351 0l-3.518-.704V98.216l3.518-.704c10.098-2.019 20.943-2.084 31.351 0l3.518.704v22.923zm5.484-20.902v-4.27a2.74 2.74 0 00-2.205-2.686l-5.722-1.144c-10.803-2.158-22.391-2.223-33.504 0l-5.722 1.144a2.74 2.74 0 00-2.202 2.687v4.269l-12.344-4.628 37.021-18.511 37.022 18.51-12.344 4.629z" fill="#E3F0FF"/></svg>