<svg width="248" height="267" fill="none" xmlns="http://www.w3.org/2000/svg"><path d="M106.132 25.039L148.5.577l42.368 24.462V73.96L148.5 98.423 106.132 73.96V25.04zm-49 84L99.5 84.577l42.368 24.462v48.922L99.5 182.423l-42.368-24.462v-48.922zm-50 84L49.5 168.577l42.368 24.462v48.922L49.5 266.423 7.132 241.961v-48.922zm149-84L198.5 84.577l42.368 24.462v48.922L198.5 182.423l-42.368-24.462v-48.922zm-50 84l42.368-24.462 42.368 24.462v48.922L148.5 266.423l-42.368-24.462v-48.922z" opacity=".35" stroke="#fff"/></svg>