<svg width="248" height="267" fill="none" xmlns="http://www.w3.org/2000/svg"><path d="M141.868 25.039L99.5.577 57.132 25.04v48.92L99.5 98.423l42.368-24.462V25.04zm49 84L148.5 84.577l-42.368 24.462v48.922l42.368 24.462 42.368-24.462v-48.922zm50 84L198.5 168.577l-42.368 24.462v48.922l42.368 24.462 42.368-24.462v-48.922zm-149-84L49.5 84.577 7.132 109.04v48.922L49.5 182.423l42.368-24.462v-48.922zm50 84L99.5 168.577l-42.368 24.462v48.922L99.5 266.423l42.368-24.462v-48.922z" opacity=".35" stroke="#fff"/></svg>