<svg width="26" height="27" fill="none" xmlns="http://www.w3.org/2000/svg"><g clip-path="url(#clip0_101_26)"><path d="M.749 12.587l6.206 3.093c.24.118.524.11.753-.025l5.524-3.211-3.343 2.963A.794.794 0 009.62 16v7.217c0 .762.972 1.082 1.428.477l2.683-3.567 6.634 3.779a.793.793 0 001.17-.533l4.137-20.62c.124-.62-.492-1.126-1.065-.895L.814 11.138c-.638.25-.68 1.143-.065 1.449zm23.085-8.723l-3.637 18.121-6.287-3.58a.795.795 0 00-1.027.212l-1.676 2.228v-4.487l9.043-8.012c.716-.633-.107-1.76-.924-1.28L7.28 14.07l-4.222-2.103 20.774-8.102z" fill="#fff"/></g><defs><clipPath id="clip0_101_26"><path fill="#fff" transform="translate(.31 .747)" d="M0 0h25.379v25.379H0z"/></clipPath></defs></svg>