<svg width="25" height="27" fill="none" xmlns="http://www.w3.org/2000/svg"><g clip-path="url(#clip0_101_18)"><path d="M22.155 3.223C21.525 2.641 18.976.791 13.3.766c0 0-6.694-.404-9.957 2.59C1.526 5.172.887 7.83.82 11.127.752 14.423.665 20.6 6.62 22.275h.005l-.003 2.556s-.038 1.034.643 1.245c.824.256 1.308-.53 2.094-1.378a67.205 67.205 0 001.478-1.671c4.072.342 7.204-.44 7.56-.557.822-.266 5.474-.863 6.231-7.039.781-6.366-.378-10.393-2.472-12.208zm.69 11.752c-.638 5.157-4.412 5.48-5.108 5.704-.296.095-3.046.78-6.505.554 0 0-2.578 3.109-3.383 3.918-.126.126-.273.177-.372.152-.139-.034-.177-.198-.175-.438l.022-4.247s-.003 0 0 0c-5.037-1.398-4.743-6.656-4.686-9.409.057-2.753.574-5.008 2.11-6.525 2.76-2.5 8.447-2.126 8.447-2.126 4.802.02 7.103 1.467 7.636 1.951 1.772 1.517 2.674 5.147 2.014 10.464v.002z" fill="#fff"/><path d="M15.636 10.983c-.062-1.26-.702-1.92-1.918-1.984m3.566 2.536c.025-1.173-.323-2.153-1.043-2.94-.723-.79-1.725-1.225-3.01-1.319" stroke="#fff" stroke-width=".69" stroke-linecap="round" stroke-linejoin="round"/><path d="M18.97 12.194c-.015-2.035-.624-3.638-1.824-4.809-1.201-1.17-2.695-1.762-4.48-1.774" stroke="#fff" stroke-width=".69" stroke-linecap="round" stroke-linejoin="round"/><path d="M13.782 15.282s.45.038.694-.26l.474-.597c.228-.295.78-.484 1.32-.183.404.23.797.482 1.177.752.358.263 1.092.876 1.094.876.35.295.43.728.192 1.185l-.001.01a4.944 4.944 0 01-.986 1.214c-.005.002-.005.004-.01.007-.339.284-.673.445-1 .484a1.332 1.332 0 01-.572-.056l-.011-.016c-.505-.143-1.348-.5-2.752-1.274a16.39 16.39 0 01-2.313-1.527 12.117 12.117 0 01-1.04-.923l-.035-.035-.035-.035-.035-.035-.035-.035a12.12 12.12 0 01-.922-1.04 16.403 16.403 0 01-1.528-2.312c-.774-1.404-1.13-2.247-1.273-2.752l-.016-.011a1.333 1.333 0 01-.065-.426.643.643 0 01.009-.146c.04-.327.202-.661.485-1.002l.007-.009c.35-.39.76-.723 1.214-.985l.01-.003c.456-.238.89-.157 1.184.19.003.003.614.737.876 1.095.27.38.521.773.752 1.179.3.54.112 1.092-.183 1.32l-.596.473c-.301.243-.261.695-.261.695s.882 3.34 4.18 4.182z" fill="#fff"/></g><defs><clipPath id="clip0_101_18"><path fill="#fff" transform="translate(.805 .747)" d="M0 0h24.068v25.379H0z"/></clipPath></defs></svg>