<svg width="27" height="27" fill="none" xmlns="http://www.w3.org/2000/svg"><g clip-path="url(#clip0_101_13)" fill="#fff"><path d="M22.355 4.433A12.578 12.578 0 0013.424.747 12.643 12.643 0 004.48 4.43C2.075 6.808.75 9.97.747 13.32v.005c0 2.028.533 4.073 1.544 5.94l-1.51 6.861 6.941-1.578a12.703 12.703 0 005.697 1.353h.005c3.368 0 6.544-1.308 8.945-3.682 2.406-2.381 3.732-5.538 3.733-8.89.001-3.328-1.33-6.488-3.747-8.896zM13.424 23.92h-.005a10.712 10.712 0 01-5.089-1.29l-.328-.178-4.615 1.05 1.003-4.556-.194-.334c-.96-1.657-1.468-3.486-1.468-5.29.004-5.839 4.801-10.595 10.696-10.595a10.61 10.61 0 017.533 3.108c2.041 2.034 3.165 4.695 3.164 7.492-.002 5.841-4.801 10.593-10.697 10.593z"/><path d="M9.975 7.78h-.556c-.194 0-.508.072-.773.36-.266.29-1.015.99-1.015 2.411 0 1.422 1.039 2.796 1.184 2.99.145.192 2.006 3.203 4.953 4.362 2.45.963 2.948.771 3.48.723.532-.048 1.716-.7 1.957-1.374.242-.675.242-1.253.17-1.374-.073-.12-.267-.193-.556-.337-.29-.145-1.712-.856-1.977-.953-.266-.096-.46-.144-.653.146-.194.288-.763.957-.932 1.15-.17.193-.338.217-.628.072-.29-.145-1.215-.455-2.323-1.44-.862-.766-1.46-1.743-1.63-2.032-.168-.29-.018-.446.128-.59.13-.13.306-.306.451-.475.145-.169.186-.29.283-.482.097-.193.048-.362-.024-.506-.073-.145-.63-1.574-.887-2.146-.217-.481-.446-.497-.652-.506z"/></g><defs><clipPath id="clip0_101_13"><path fill="#fff" transform="translate(.747 .747)" d="M0 0h25.379v25.379H0z"/></clipPath></defs></svg>